<svg width="120" height="140" viewBox="0 0 120 140" fill="none" xmlns="http://www.w3.org/2000/svg">
  <!-- Logo Icon centered -->
  <g transform="translate(28, 10)">
    <!-- Neural network pattern representing AI -->
    <g>
      <!-- Central node with gradient -->
      <circle cx="32" cy="32" r="4" fill="url(#gradient1)"/>
      
      <!-- Connected nodes forming a network -->
      <circle cx="20" cy="20" r="2.5" fill="#3b82f6"/>
      <circle cx="44" cy="20" r="2.5" fill="#3b82f6"/>
      <circle cx="20" cy="44" r="2.5" fill="#3b82f6"/>
      <circle cx="44" cy="44" r="2.5" fill="#3b82f6"/>
      <circle cx="32" cy="16" r="2" fill="#8b5cf6"/>
      <circle cx="32" cy="48" r="2" fill="#8b5cf6"/>
      <circle cx="16" cy="32" r="2" fill="#8b5cf6"/>
      <circle cx="48" cy="32" r="2" fill="#8b5cf6"/>
      
      <!-- Connection lines -->
      <line x1="32" y1="32" x2="20" y2="20" stroke="#3b82f6" stroke-width="2" opacity="0.8"/>
      <line x1="32" y1="32" x2="44" y2="20" stroke="#3b82f6" stroke-width="2" opacity="0.8"/>
      <line x1="32" y1="32" x2="20" y2="44" stroke="#3b82f6" stroke-width="2" opacity="0.8"/>
      <line x1="32" y1="32" x2="44" y2="44" stroke="#3b82f6" stroke-width="2" opacity="0.8"/>
      <line x1="32" y1="32" x2="32" y2="16" stroke="#8b5cf6" stroke-width="2" opacity="0.8"/>
      <line x1="32" y1="32" x2="32" y2="48" stroke="#8b5cf6" stroke-width="2" opacity="0.8"/>
      <line x1="32" y1="32" x2="16" y2="32" stroke="#8b5cf6" stroke-width="2" opacity="0.8"/>
      <line x1="32" y1="32" x2="48" y2="32" stroke="#8b5cf6" stroke-width="2" opacity="0.8"/>
      
      <!-- Workflow arrows -->
      <path d="M24 28 L28 32 L24 36" stroke="url(#gradient2)" stroke-width="2.5" fill="none" stroke-linecap="round" stroke-linejoin="round"/>
      <path d="M40 28 L36 32 L40 36" stroke="url(#gradient2)" stroke-width="2.5" fill="none" stroke-linecap="round" stroke-linejoin="round"/>
      
      <!-- Subtle "Z" integration -->
      <path d="M26 24 L38 24 L26 40 L38 40" stroke="url(#gradient1)" stroke-width="2" fill="none" opacity="0.6" stroke-linecap="round"/>
    </g>
  </g>
  
  <!-- Text "Zenjira" below icon -->
  <g transform="translate(60, 95)">
    <text x="0" y="0" text-anchor="middle" font-family="Inter, system-ui, sans-serif" font-size="24" font-weight="700" fill="url(#textGradient)">
      Zenjira
    </text>
    <text x="0" y="16" text-anchor="middle" font-family="Inter, system-ui, sans-serif" font-size="9" font-weight="400" fill="#64748b" letter-spacing="0.1em">
      AI-POWERED JIRA
    </text>
  </g>
  
  <!-- Gradients -->
  <defs>
    <linearGradient id="gradient1" x1="0%" y1="0%" x2="100%" y2="100%">
      <stop offset="0%" style="stop-color:#3b82f6;stop-opacity:1" />
      <stop offset="50%" style="stop-color:#6366f1;stop-opacity:1" />
      <stop offset="100%" style="stop-color:#8b5cf6;stop-opacity:1" />
    </linearGradient>
    <linearGradient id="gradient2" x1="0%" y1="0%" x2="100%" y2="100%">
      <stop offset="0%" style="stop-color:#60a5fa;stop-opacity:1" />
      <stop offset="100%" style="stop-color:#a78bfa;stop-opacity:1" />
    </linearGradient>
    <linearGradient id="textGradient" x1="0%" y1="0%" x2="100%" y2="0%">
      <stop offset="0%" style="stop-color:#1e293b;stop-opacity:1" />
      <stop offset="50%" style="stop-color:#3b82f6;stop-opacity:1" />
      <stop offset="100%" style="stop-color:#6366f1;stop-opacity:1" />
    </linearGradient>
  </defs>
</svg>