<svg width="64" height="64" viewBox="0 0 64 64" fill="none" xmlns="http://www.w3.org/2000/svg">
  <!-- Neural network pattern representing AI -->
  <g>
    <!-- Central node with gradient -->
    <circle cx="32" cy="32" r="4" fill="url(#gradientDark1)"/>
    
    <!-- Connected nodes forming a network -->
    <circle cx="20" cy="20" r="2.5" fill="#60a5fa"/>
    <circle cx="44" cy="20" r="2.5" fill="#60a5fa"/>
    <circle cx="20" cy="44" r="2.5" fill="#60a5fa"/>
    <circle cx="44" cy="44" r="2.5" fill="#60a5fa"/>
    <circle cx="32" cy="16" r="2" fill="#a78bfa"/>
    <circle cx="32" cy="48" r="2" fill="#a78bfa"/>
    <circle cx="16" cy="32" r="2" fill="#a78bfa"/>
    <circle cx="48" cy="32" r="2" fill="#a78bfa"/>
    
    <!-- Connection lines -->
    <line x1="32" y1="32" x2="20" y2="20" stroke="#60a5fa" stroke-width="2" opacity="0.8"/>
    <line x1="32" y1="32" x2="44" y2="20" stroke="#60a5fa" stroke-width="2" opacity="0.8"/>
    <line x1="32" y1="32" x2="20" y2="44" stroke="#60a5fa" stroke-width="2" opacity="0.8"/>
    <line x1="32" y1="32" x2="44" y2="44" stroke="#60a5fa" stroke-width="2" opacity="0.8"/>
    <line x1="32" y1="32" x2="32" y2="16" stroke="#a78bfa" stroke-width="2" opacity="0.8"/>
    <line x1="32" y1="32" x2="32" y2="48" stroke="#a78bfa" stroke-width="2" opacity="0.8"/>
    <line x1="32" y1="32" x2="16" y2="32" stroke="#a78bfa" stroke-width="2" opacity="0.8"/>
    <line x1="32" y1="32" x2="48" y2="32" stroke="#a78bfa" stroke-width="2" opacity="0.8"/>
    
    <!-- Workflow arrows -->
    <path d="M24 28 L28 32 L24 36" stroke="url(#gradientDark2)" stroke-width="2.5" fill="none" stroke-linecap="round" stroke-linejoin="round"/>
    <path d="M40 28 L36 32 L40 36" stroke="url(#gradientDark2)" stroke-width="2.5" fill="none" stroke-linecap="round" stroke-linejoin="round"/>
    
    <!-- Subtle "Z" integration -->
    <path d="M26 24 L38 24 L26 40 L38 40" stroke="url(#gradientDark1)" stroke-width="2" fill="none" opacity="0.7" stroke-linecap="round"/>
  </g>
  
  <!-- Gradients for dark theme -->
  <defs>
    <linearGradient id="gradientDark1" x1="0%" y1="0%" x2="100%" y2="100%">
      <stop offset="0%" style="stop-color:#60a5fa;stop-opacity:1" />
      <stop offset="50%" style="stop-color:#818cf8;stop-opacity:1" />
      <stop offset="100%" style="stop-color:#a78bfa;stop-opacity:1" />
    </linearGradient>
    <linearGradient id="gradientDark2" x1="0%" y1="0%" x2="100%" y2="100%">
      <stop offset="0%" style="stop-color:#93c5fd;stop-opacity:1" />
      <stop offset="100%" style="stop-color:#c4b5fd;stop-opacity:1" />
    </linearGradient>
  </defs>
</svg>